<svg id="Capa_1" enable-background="new 0 0 512 512" height="512" viewBox="0 0 512 512" width="512" xmlns="http://www.w3.org/2000/svg"><g><g><g><g><g><g><g><path d="m352.566 256.865c-4.268 0-7.726-3.459-7.726-7.726v-86.667c0-6.803-5.535-12.338-12.339-12.338h-167.17c-6.804 0-12.339 5.535-12.339 12.338v86.667c0 4.268-3.459 7.726-7.726 7.726s-7.726-3.459-7.726-7.726v-86.667c0-15.324 12.468-27.791 27.792-27.791h167.17c15.324 0 27.792 12.467 27.792 27.791v86.667c-.001 4.267-3.46 7.726-7.728 7.726z" fill="#c3a2a2"/></g><path d="m418.545 349.098h-325.09c-22.747 0-41.187-18.44-41.187-41.187v162.902c0 22.747 18.44 41.187 41.187 41.187h325.09c22.747 0 41.187-18.44 41.187-41.187v-162.901c0 22.746-18.44 41.186-41.187 41.186z" fill="#b78e8e"/><path d="m399.523 470.813v-121.715h-306.068c-22.747 0-41.187-18.44-41.187-41.187v162.902c0 22.747 18.44 41.187 41.187 41.187h264.881c22.747 0 41.187-18.44 41.187-41.187z" fill="#b78e8e"/><path d="m418.545 349.098h-22.112v121.715c0 22.747-18.44 41.187-41.187 41.187h63.299c22.747 0 41.187-18.44 41.187-41.187v-162.901c0 22.746-18.44 41.186-41.187 41.186z" fill="#aa8080"/><path d="m399.523 277.337c0-22.747-18.44-41.187-41.187-41.187h-264.881c-22.747 0-41.187 18.44-41.187 41.187v34.717c0 22.747 18.44 41.187 41.187 41.187h306.068z" fill="#aa8080"/><path d="m418.545 236.15h-63.299c22.747 0 41.187 18.44 41.187 41.187v75.904h22.112c22.747 0 41.187-18.44 41.187-41.187v-34.717c0-22.747-18.44-41.187-41.187-41.187z" fill="#9d6b6b"/></g></g></g><g><g><g><path d="m129.61 394.611c-14.028 0-25.4-11.372-25.4-25.399v-48.216c0-5.04 4.085-9.125 9.125-9.125h32.549c5.04 0 9.125 4.085 9.125 9.125v48.216c0 14.027-11.372 25.399-25.399 25.399z" fill="#f9efaf"/></g></g><g><g><path d="m382.391 394.611c-14.028 0-25.4-11.372-25.4-25.399v-48.216c0-5.04 4.085-9.125 9.125-9.125h32.549c5.039 0 9.125 4.085 9.125 9.125v48.216c0 14.027-11.372 25.399-25.399 25.399z" fill="#f9efaf"/></g></g><path d="m104.21 341.155v28.057c0 14.028 11.372 25.399 25.399 25.399 14.028 0 25.399-11.372 25.399-25.399v-28.057z" fill="#ffd064"/></g></g><path d="m276.465 126.17c-.231-16.697-2.361-23.308-13.367-31.975l-11.996-9.446c-7.3-5.748-11.56-14.526-11.56-23.818v-14.028h-44.845v26.455c0 3.843-.731 7.65-2.153 11.22l-9.968 25.021c-4.51 13.231-6.812 27.114-6.812 41.093v27.404c0 7.295 5.914 13.21 13.21 13.21h8.446c6.649 0 12.15-4.913 13.073-11.306h.136v6.563c0 7.295 5.914 13.209 13.209 13.209h8.446c6.521 0 11.939-4.726 13.015-10.939h.195v4.458c0 7.295 5.914 13.209 13.209 13.209h8.447c2.792 0 5.382-.867 7.516-2.345 1.15-.797 1.805-2.136 1.805-3.535z" fill="#ffece3"/><path d="m337.832 126.17c-.231-16.697-2.361-23.308-13.367-31.975l-11.996-9.446c-7.299-5.749-11.559-14.527-11.559-23.818v-14.028h-63.3v14.028c0 9.291 4.261 18.069 11.56 23.818l11.995 9.446c11.006 8.667 13.136 15.277 13.367 31.975l.008 78.072c2.71-1.833 4.704-4.645 5.472-7.929h.348v1.588c0 7.295 5.914 13.209 13.209 13.209h8.447c7.295 0 13.209-5.914 13.209-13.209l.014-43.78c.001-6.469 5.246-11.712 11.715-11.712.648 0 5.267-.001 5.546-.001h.056c2.898.008 5.289-2.241 5.286-5.139z" fill="#ffddce"/><g><g><g><g><g><g><g><g><g><g><g><path d="m257.932 54.072v-52.349c0-.952-.772-1.723-1.723-1.723h-72.35c-2.96 0-5.36 2.4-5.36 5.36v48.711c0 7.022 5.692 12.714 12.714 12.714h54.006c7.021 0 12.713-5.692 12.713-12.713z" fill="#8c9ba6"/><path d="m313.974 0h-57.974v54.072c0 7.022-5.692 12.714-12.714 12.714h63.334c7.022 0 12.714-5.692 12.714-12.714v-48.712c0-2.96-2.4-5.36-5.36-5.36z" fill="#7c8b96"/></g></g></g></g></g></g></g></g></g></g></g></g><g><path d="m356.991 341.155v28.057c0 14.028 11.372 25.399 25.399 25.399 14.028 0 25.399-11.372 25.399-25.399v-28.057z" fill="#ffd064"/></g></g></svg>